<svg xmlns="http://www.w3.org/2000/svg" viewBox="0 0 512 512" role="img" aria-labelledby="title desc">
  <title id="title">Agentic Consensus logo</title>
  <desc id="desc">A governed consensus layer connecting intent, artifacts, and evidence nodes.</desc>
  <defs>
    <linearGradient id="surface" x1="72" y1="46" x2="436" y2="464" gradientUnits="userSpaceOnUse">
      <stop offset="0" stop-color="#ffffff"/>
      <stop offset=".58" stop-color="#f4f7fb"/>
      <stop offset="1" stop-color="#e4ebf4"/>
    </linearGradient>
    <linearGradient id="core" x1="166" y1="142" x2="346" y2="372" gradientUnits="userSpaceOnUse">
      <stop offset="0" stop-color="#0f172a"/>
      <stop offset=".52" stop-color="#243b63"/>
      <stop offset="1" stop-color="#2f6f73"/>
    </linearGradient>
    <filter id="shadow" x="48" y="58" width="416" height="392" filterUnits="userSpaceOnUse" color-interpolation-filters="sRGB">
      <feDropShadow dx="0" dy="16" stdDeviation="18" flood-color="#0f172a" flood-opacity=".18"/>
    </filter>
  </defs>
  <rect x="22" y="22" width="468" height="468" rx="104" fill="url(#surface)"/>
  <rect x="22.5" y="22.5" width="467" height="467" rx="103.5" fill="none" stroke="#ffffff" stroke-opacity=".92"/>
  <g filter="url(#shadow)">
    <path d="M256 132 372 200v132L256 400 140 332V200z" fill="#ffffff" stroke="#cdd8e7" stroke-width="14" stroke-linejoin="round"/>
    <path d="M256 154 346 207v104L256 364l-90-53V207z" fill="url(#core)"/>
    <path d="M256 154v210M166 207l180 104M346 207 166 311" fill="none" stroke="#ffffff" stroke-opacity=".22" stroke-width="8" stroke-linecap="round"/>
    <rect x="206" y="206" width="100" height="100" rx="22" fill="#ffffff"/>
    <path d="M230 258h52M256 232v52" fill="none" stroke="#244256" stroke-width="16" stroke-linecap="round"/>
    <circle cx="256" cy="108" r="34" fill="#ffffff" stroke="#0f172a" stroke-width="12"/>
    <circle cx="104" cy="346" r="34" fill="#ffffff" stroke="#2f6f73" stroke-width="12"/>
    <circle cx="408" cy="346" r="34" fill="#ffffff" stroke="#d97706" stroke-width="12"/>
    <path d="M256 142v64M134 330l72-46M378 330l-72-46" fill="none" stroke="#4b5f73" stroke-width="14" stroke-linecap="round"/>
    <circle cx="256" cy="108" r="8" fill="#0f172a"/>
    <circle cx="104" cy="346" r="8" fill="#2f6f73"/>
    <circle cx="408" cy="346" r="8" fill="#d97706"/>
  </g>
</svg>
